# xmcd
#
# Track frame offsets: 
#        193
#        13315
#        25928
#        40790
#        56450
#        96555
#        132025
#        148945
#        182470
#        206975
#        224460
#        247258
#        270753
#        286665
#
# Disc length: 4030 seconds
#
# Revision: 4
# Processed by: cddbd v1.5.2PL0 Copyright (c) Steve Scherf et al.
# Submitted via: ExactAudioCopy v1.3
#
DISCID=d30fbc0e
DTITLE=Curtis Mayfield and The Impressions - The Anthology 1961-1977 (Di
DTITLE=sk 2)
DYEAR=1992
DGENRE=Soul
TTITLE0=Fool For You
TTITLE1=This Is My Country
TTITLE2=Choice Of Colors
TTITLE3=Check Out Your Mind
TTITLE4=Curtis Mayfield - Move On Up
TTITLE5=Curtis Mayfield - (Don't Worry) If There's A Hell Below We're 
TTITLE5=All Going To Go
TTITLE6=Curtis Mayfield - The Makings Of You
TTITLE7=Curtis Mayfield - Beautiful Brother Of Mine
TTITLE8=Curtis Mayfield - Freddie's Dead
TTITLE9=Curtis Mayfield - Superfly
TTITLE10=Curtis Mayfield - Pusherman
TTITLE11=Curtis Mayfield - So In Love
TTITLE12=Curtis Mayfield - Only You Babe (single edit)
TTITLE13=Curtis Mayfield - Do Do Wap Is Strong In Here (single edit)
EXTD=
EXTT0=
EXTT1=
EXTT2=
EXTT3=
EXTT4=
EXTT5=
EXTT6=
EXTT7=
EXTT8=
EXTT9=
EXTT10=
EXTT11=
EXTT12=
EXTT13=
PLAYORDER=
